#N canvas 952 0 956 956 12;
#X obj 155 -101 netreceive -u -b 10000;
#X obj 153 -25 oscparse;
#X obj 202 94 list trim;
#X obj 213 267 route slider1;
#X obj 235 327 float;
#X obj 233 489 *~, f 4;
#X obj 208 569 dac~;
#X text 17 270 Volume control slider1;
#X obj 200 183 route oscControl;
#X obj 29 421 print;
#X obj 392 272 route slider2;
#X obj 397 327 float;
#X obj 624 234 route gridButton1 gridButton2 gridButton3 gridButton4 gridButton5 gridButton6 gridButton7 gridButton8 gridButton9 gridButton10 gridButton11 gridButton12 gridButton13 gridButton14 gridButton15 gridButton16 gridButton17 gridButton18 gridButton19 gridButton20 gridButton21 gridButton22 gridButton23 gridButton24, f 112;
#X obj 606 321 bng 19 250 50 0 empty empty empty 0 -10 0 12 #fcfcfc #000000 #000000;
#X msg 564 363 64;
#X msg 616 363 127;
#X msg 662 364 1;
#X obj 582 405 noteout;
#X obj 751 326 bng 19 250 50 0 empty empty empty 0 -10 0 12 #fcfcfc #000000 #000000;
#X msg 807 369 1;
#X obj 727 410 noteout;
#X obj 896 328 bng 19 250 50 0 empty empty empty 0 -10 0 12 #fcfcfc #000000 #000000;
#X msg 906 370 127;
#X msg 952 371 1;
#X obj 872 412 noteout;
#X obj 1048 331 bng 19 250 50 0 empty empty empty 0 -10 0 12 #fcfcfc #000000 #000000;
#X msg 1058 373 127;
#X msg 1104 374 1;
#X obj 1024 415 noteout;
#X obj 1198 333 bng 19 250 50 0 empty empty empty 0 -10 0 12 #fcfcfc #000000 #000000;
#X msg 1208 375 127;
#X msg 1254 376 1;
#X obj 1174 417 noteout;
#X obj 1346 336 bng 19 250 50 0 empty empty empty 0 -10 0 12 #fcfcfc #000000 #000000;
#X msg 1356 378 127;
#X msg 1402 379 1;
#X obj 1322 420 noteout;
#X obj 675 459 bng 19 250 50 0 empty empty empty 0 -10 0 12 #fcfcfc #000000 #000000;
#X msg 685 501 127;
#X msg 731 502 1;
#X obj 651 543 noteout;
#X obj 824 455 bng 19 250 50 0 empty empty empty 0 -10 0 12 #fcfcfc #000000 #000000;
#X msg 834 497 127;
#X msg 880 498 1;
#X obj 800 539 noteout;
#X obj 963 454 bng 19 250 50 0 empty empty empty 0 -10 0 12 #fcfcfc #000000 #000000;
#X msg 973 496 127;
#X msg 1019 497 1;
#X obj 939 538 noteout;
#X obj 1101 456 bng 19 250 50 0 empty empty empty 0 -10 0 12 #fcfcfc #000000 #000000;
#X msg 1111 498 127;
#X msg 1157 499 1;
#X obj 1077 540 noteout;
#X obj 1256 459 bng 19 250 50 0 empty empty empty 0 -10 0 12 #fcfcfc #000000 #000000;
#X msg 1266 501 127;
#X msg 1312 502 1;
#X obj 1232 543 noteout;
#X obj 1394 457 bng 19 250 50 0 empty empty empty 0 -10 0 12 #fcfcfc #000000 #000000;
#X msg 1404 499 127;
#X msg 1450 500 1;
#X obj 1370 541 noteout;
#X obj 678 595 bng 19 250 50 0 empty empty empty 0 -10 0 12 #fcfcfc #000000 #000000;
#X msg 688 637 127;
#X msg 734 638 1;
#X obj 654 679 noteout;
#X obj 844 590 bng 19 250 50 0 empty empty empty 0 -10 0 12 #fcfcfc #000000 #000000;
#X msg 854 632 127;
#X msg 900 633 1;
#X obj 820 674 noteout;
#X msg 709 368 65;
#X msg 761 368 129;
#X msg 854 370 66;
#X msg 1006 373 68;
#X msg 1156 375 69;
#X msg 1304 378 70;
#X obj 1011 591 bng 19 250 50 0 empty empty empty 0 -10 0 12 #fcfcfc #000000 #000000;
#X msg 1021 633 127;
#X msg 1067 634 1;
#X obj 987 675 noteout;
#X obj 1163 586 bng 19 250 50 0 empty empty empty 0 -10 0 12 #fcfcfc #000000 #000000;
#X msg 1173 628 127;
#X msg 1219 629 1;
#X obj 1139 670 noteout;
#X msg 633 501 71;
#X msg 782 497 72;
#X msg 921 496 73;
#X msg 1059 498 74;
#X msg 1214 501 75;
#X msg 1352 499 76;
#X msg 636 637 77;
#X msg 802 632 78;
#X msg 969 633 79;
#X msg 1121 628 80;
#X obj 1310 586 bng 19 250 50 0 empty empty empty 0 -10 0 12 #fcfcfc #000000 #000000;
#X msg 1320 628 127;
#X msg 1366 629 1;
#X obj 1286 670 noteout;
#X obj 1461 582 bng 19 250 50 0 empty empty empty 0 -10 0 12 #fcfcfc #000000 #000000;
#X msg 1471 624 127;
#X msg 1517 625 1;
#X obj 1437 666 noteout;
#X obj 1618 585 bng 19 250 50 0 empty empty empty 0 -10 0 12 #fcfcfc #000000 #000000;
#X msg 1628 627 127;
#X msg 1674 628 1;
#X obj 1594 669 noteout;
#X obj 729 735 bng 19 250 50 0 empty empty empty 0 -10 0 12 #fcfcfc #000000 #000000;
#X msg 739 777 127;
#X msg 785 778 1;
#X obj 705 819 noteout;
#X obj 899 731 bng 19 250 50 0 empty empty empty 0 -10 0 12 #fcfcfc #000000 #000000;
#X msg 909 773 127;
#X msg 955 774 1;
#X obj 875 815 noteout;
#X obj 1056 724 bng 19 250 50 0 empty empty empty 0 -10 0 12 #fcfcfc #000000 #000000;
#X msg 1066 766 127;
#X msg 1112 767 1;
#X obj 1032 808 noteout;
#X obj 1212 722 bng 19 250 50 0 empty empty empty 0 -10 0 12 #fcfcfc #000000 #000000;
#X msg 1222 764 127;
#X msg 1268 765 1;
#X obj 1188 806 noteout;
#X obj 1372 723 bng 19 250 50 0 empty empty empty 0 -10 0 12 #fcfcfc #000000 #000000;
#X msg 1382 765 127;
#X msg 1428 766 1;
#X obj 1348 807 noteout;
#X msg 1268 628 63;
#X msg 1419 624 62;
#X msg 1576 627 61;
#X msg 687 777 60;
#X msg 857 773 59;
#X msg 1014 766 58;
#X msg 1170 764 57;
#X msg 1330 765 56;
#X obj 1720 324 tgl 19 0 empty empty empty 0 -10 0 12 #fcfcfc #000000 #000000 0 1;
#X obj 1760 395 bng 19 250 50 0 empty empty empty 0 -10 0 12 #fcfcfc #000000 #000000;
#X obj 1775 451 line~;
#X obj 1806 604 dac~;
#X obj 1775 534 -~ 0.25;
#X obj 1780 476 sqrt~;
#X obj 1804 573 cos~;
#X obj 1780 502 *~ 20;
#X obj 1734 358 metro 450;
#X msg 1765 425 0 \, 20 1000;
#X obj 1818 334 tgl 19 0 empty empty empty 0 -10 0 12 #fcfcfc #000000 #000000 0 1;
#X obj 1858 405 bng 19 250 50 0 empty empty empty 0 -10 0 12 #fcfcfc #000000 #000000;
#X obj 1873 461 line~;
#X obj 1904 614 dac~;
#X obj 1873 544 -~ 0.25;
#X obj 1878 486 sqrt~;
#X obj 1902 583 cos~;
#X obj 1878 512 *~ 20;
#X obj 1832 368 metro 400;
#X obj 1918 326 tgl 19 0 empty empty empty 0 -10 0 12 #fcfcfc #000000 #000000 0 1;
#X obj 1958 397 bng 19 250 50 0 empty empty empty 0 -10 0 12 #fcfcfc #000000 #000000;
#X obj 1973 453 line~;
#X obj 2004 606 dac~;
#X obj 1973 536 -~ 0.25;
#X obj 1978 478 sqrt~;
#X obj 1978 504 *~ 20;
#X obj 1932 360 metro 300;
#X obj 2002 575 cos~;
#X obj 2013 330 tgl 19 0 empty empty empty 0 -10 0 12 #fcfcfc #000000 #000000 0 1;
#X obj 2053 401 bng 19 250 50 0 empty empty empty 0 -10 0 12 #fcfcfc #000000 #000000;
#X obj 2068 457 line~;
#X obj 2099 610 dac~;
#X obj 2068 540 -~ 0.25;
#X obj 2073 482 sqrt~;
#X obj 2097 579 cos~;
#X obj 2073 508 *~ 20;
#X msg 1963 427 0 \, 10 500;
#X obj 2027 364 metro 500;
#X obj 2129 328 tgl 19 0 empty empty empty 0 -10 0 12 #fcfcfc #000000 #000000 0 1;
#X obj 2169 399 bng 19 250 50 0 empty empty empty 0 -10 0 12 #fcfcfc #000000 #000000;
#X obj 2184 455 line~;
#X obj 2215 608 dac~;
#X obj 2184 538 -~ 0.25;
#X obj 2213 577 cos~;
#X obj 2143 362 metro 450;
#X obj 2239 323 tgl 19 0 empty empty empty 0 -10 0 12 #fcfcfc #000000 #000000 0 1;
#X obj 2279 394 bng 19 250 50 0 empty empty empty 0 -10 0 12 #fcfcfc #000000 #000000;
#X obj 2294 450 line~;
#X obj 2325 603 dac~;
#X obj 2294 533 -~ 0.25;
#X obj 2299 475 sqrt~;
#X obj 2323 572 cos~;
#X obj 334 588 route toggle1;
#X obj 464 571 route slider3;
#X obj 490 622 float;
#X obj 510 658 * 1000;
#X obj 294 949 bng 19 250 50 0 empty empty empty 0 -10 0 12 #fcfcfc #000000 #000000;
#X obj 294 998 int;
#X obj 363 994 + 1;
#X msg 358 948 0;
#X floatatom 297 1041 5 0 0 0 - - - 0;
#X obj 298 1075 % 4;
#X floatatom 298 1099 5 0 0 0 - - - 0;
#X obj 298 1122 + 1;
#X floatatom 298 1146 5 0 0 0 - - - 0;
#X obj 304 1202 + 80;
#X obj -576 1631;
#X obj 304 1226 phasor~ 440;
#X obj 325 1347 *~;
#X msg 456 903 80;
#X msg 509 902 100;
#X msg 570 906 120;
#X obj 510 1123 tgl 19 0 empty empty empty 0 -10 0 12 #fcfcfc #000000 #000000 0 1;
#X obj 489 1165 metro 500;
#X obj 493 1248 delay 65;
#X msg 431 1294 0;
#X msg 420 1239 4;
#X obj 657 1047 tgl 19 0 empty empty empty 0 -10 0 12 #fcfcfc #000000 #000000 0 1;
#X obj 809 1117 tgl 19 0 empty empty empty 0 -10 0 12 #fcfcfc #000000 #000000 0 1;
#X obj 805 1176 metro 125;
#X obj 810 1227 bng 19 250 50 0 empty empty empty 0 -10 0 12 #fcfcfc #000000 #000000;
#X obj 805 1260 random 10;
#X floatatom 810 1295 5 0 0 0 - - - 0;
#X obj 813 1327 * 80;
#X obj 779 1362 osc~;
#X obj 862 1367 * 2;
#X obj 862 1391 osc~;
#X obj 804 1441 *~ 0.5;
#X obj 697 1156 tgl 19 0 empty empty empty 0 -10 0 12 #fcfcfc #000000 #000000 0 1;
#X obj 679 1219 metro 250;
#X obj 692 1251 bng 19 250 50 0 empty empty empty 0 -10 0 12 #fcfcfc #000000 #000000;
#X obj 696 1290 delay 50;
#X obj 580 1142 noise~;
#X obj 573 1186 hip~ 3000;
#X obj 559 1365 *~;
#X obj 553 1486 *~ 1;
#X obj 663 1367 tgl 19 0 empty empty empty 0 -10 0 12 #fcfcfc #000000 #000000 0 1;
#X msg 624 1270;
#X msg 614 1351;
#X obj 554 1517 *~ 0.1;
#X obj 555 1558 dac~;
#X obj 1610 1138 catch~ delay;
#X obj 1611 1177 lop~ 2000;
#X obj 1612 1212 *~ 0.9;
#X obj 1606 1242 delwrite~ delBuff 1000;
#X obj 1655 1285 delread~ delBuff 1000;
#X obj 1601 1344 throw~ left;
#X obj 1840 1286 delread~ delBuff 900;
#X obj 1763 1342 throw~ right;
#X obj 1884 1342 throw~ delay;
#X obj 1719 1451 catch~ right;
#X obj 1644 1493 dac~;
#X obj 1615 1453 catch~ left;
#X obj 1289 914 r EOC;
#X obj 1294 961 bng 19 250 50 0 empty empty empty 0 -10 0 12 #fcfcfc #000000 #000000;
#X obj 1037 1035 random 88;
#X obj 1218 1032 random 88;
#X obj 1130 1033 random 88;
#X obj 1038 1067 + 21;
#X obj 1220 1068 + 21;
#X obj 1139 1069 + 21;
#X floatatom 1037 1101 5 0 0 0 - - - 0;
#X floatatom 1145 1100 5 0 0 0 - - - 0;
#X floatatom 1228 1099 5 0 0 0 - - - 0;
#X obj 1033 1139 mtof;
#X obj 1140 1137 mtof;
#X obj 1227 1138 mtof;
#X obj 1134 1187 osc~ 440;
#X obj 1037 1283 *~;
#X obj 1139 1228 *~;
#X obj 1037 1325 osc~ 440;
#X obj 1104 1372 *~ 0;
#X obj 1107 1416 bp~ 100 3;
#X obj 1095 1460 throw~ left;
#X obj 1204 1461 throw~ right;
#X obj 1323 1460 throw~ delay;
#X obj 1533 1025 delay 5;
#X obj 1533 1049 delay 500;
#X obj 1533 1073 random 3000;
#X obj 1533 1097 + 100;
#X msg 1533 1121 0 \$1;
#X obj 1299 1034 random 500;
#X obj 1339 1061 + 50;
#X msg 1344 1088 0.5 \$1;
#X obj 1347 1129 line 0 3;
#X floatatom 1347 1153 5 0 0 0 - - - 0;
#X obj 1347 1176 sel 0;
#X obj 1345 1213 bng 19 250 50 0 empty empty empty 0 -10 0 12 #fcfcfc #000000 #000000;
#X obj 1347 1256 spigot;
#X obj 1347 1280 bng 19 250 50 0 empty empty empty 0 -10 0 12 #fcfcfc #000000 #000000;
#X obj 1347 1304 delay 200;
#X obj 1347 1328 s EOC;
#X obj 1467 1195 delay 100;
#X msg 1467 1219;
#X msg 1467 1219 1;
#X msg 1419 1222 0;
#X obj 1416 1257 tgl 19 0 empty empty empty 0 -10 0 12 #fcfcfc #000000 #000000 0 1;
#X obj 867 929 route button1;
#X obj -93 995 random 8;
#X floatatom -93 1019 5 0 0 0 - - - 0;
#X obj -92 1107 bng 19 250 50 0 empty empty empty 0 -10 0 12 #fcfcfc #000000 #000000;
#X obj -52 1111 bng 19 250 50 0 empty empty empty 0 -10 0 12 #fcfcfc #000000 #000000;
#X obj -20 1112 bng 19 250 50 0 empty empty empty 0 -10 0 12 #fcfcfc #000000 #000000;
#X obj 11 1109 bng 19 250 50 0 empty empty empty 0 -10 0 12 #fcfcfc #000000 #000000;
#X obj 39 1110 bng 19 250 50 0 empty empty empty 0 -10 0 12 #fcfcfc #000000 #000000;
#X obj 72 1108 bng 19 250 50 0 empty empty empty 0 -10 0 12 #fcfcfc #000000 #000000;
#X obj 107 1111 bng 19 250 50 0 empty empty empty 0 -10 0 12 #fcfcfc #000000 #000000;
#X obj -95 1061 sel 0 1 2 3 4 5 6 7, f 34;
#X obj 145 1109 bng 19 250 50 0 empty empty empty 0 -10 0 12 #fcfcfc #000000 #000000;
#X obj -95 972 bng 19 250 50 0 empty empty empty 0 -10 0 12 #fcfcfc #000000 #000000;
#X floatatom 42 1245 5 0 0 0 - - - 0;
#X obj 43 1269 mtof;
#X floatatom 33 1307 5 0 0 0 - - - 0;
#X obj 39 1382 osc~;
#X obj -77 873 tgl 19 0 empty empty empty 0 -10 0 12 #fcfcfc #000000 #000000 0 1;
#X obj 99 624 route toggle2, f 14;
#X obj -503 934 tgl 19 0 empty empty empty 0 -10 0 12 #fcfcfc #000000 #000000 0 1;
#X obj -503 975 metro;
#X obj -504 1008 f;
#X obj -447 1009 + 1;
#X obj -447 1033 mod 10;
#X obj -499 1100 tabread \$0-points;
#X floatatom -484 1134 5 0 0 0 - - - 0;
#N canvas 0 50 450 250 (subpatch) 0;
#X array \$0-points 10 float 3;
#A 0 0.400008 0 -0.21429 0 0.471438 0 -0.6143 -0.371436 0.528584 -0.657158;
#A color 0;
#A width 2;
#X coords 0 1 10 -1 200 140 1;
#X restore -320 950 graph;
#X floatatom -510 1048 5 0 0 0 - - - 0;
#X obj -476 1214 vline~;
#X floatatom -462 933 5 0 0 0 - - - 0;
#X obj -472 1266 *~;
#X obj -474 1308 dac~;
#X obj -281 446 route slider3;
#X obj -282 484 float;
#X obj -449 436 route toggle3;
#X obj -154 481 route slider4;
#X obj -165 529 float;
#X obj -93 947 metro 150;
#X msg -90 1160 83;
#X msg -45 1158 84;
#X msg 5 1156 88;
#X msg 39 1154 89;
#X msg 85 1157 91;
#X msg 127 1152 95;
#X msg 177 1155 96;
#X msg 239 1155 98;
#X msg 2174 429 0.5 \, 30 300;
#X obj 2189 506 *~ 30;
#X msg 1863 435 0 \, 20 300;
#X msg 2058 431 1 \, 100 200;
#X obj 2299 501 *~ 5;
#X msg 2284 424 0 \, 120 100;
#X obj 2253 357 metro 300;
#X obj 2390 385 bng 19 250 50 0 empty empty empty 0 -10 0 12 #fcfcfc #000000 #000000;
#X obj 2398 440 line~;
#X obj 2433 613 dac~;
#X obj 2360 320 tgl 19 0 empty empty empty 0 -10 0 12 #fcfcfc #000000 #000000 0 1;
#X obj 2357 347 metro 900;
#X msg 2388 414 0 \, 30 300;
#X obj 2403 465 pow~ 2;
#X obj 2403 491 *~ 20;
#X obj 2417 570 cos~;
#X obj 2398 523 -~ 0.1;
#X obj -111 1624 metro 1000;
#X obj -114 1677 bng 19 250 50 0 empty empty empty 0 -10 0 12 #fcfcfc #000000 #000000;
#X obj -95 1713 s trig;
#X obj -15 1699 + 50;
#X floatatom -15 1723 5 0 0 0 - - - 0;
#X floatatom -125 1815 5 0 0 0 - - - 0;
#X obj -125 1838 mtof;
#X floatatom -125 1862 5 0 0 0 - - - 0;
#X obj -121 1973 osc~;
#X obj 35 1947 / 2;
#X obj 33 1984 osc~;
#X obj 45 2111 *~ 0.1;
#X obj 90 1968 r trig;
#X obj 90 1992 random 10;
#X obj 90 2016 * 0.01;
#X obj 90 2040 \$1 30;
#X obj 90 2064 line 0 3;
#X obj 196 1992 osc~;
#X obj 208 2119 *~ 0.1;
#X obj 253 1976 r trig;
#X obj 253 2000 random 10;
#X obj 253 2024 * 0.01;
#X obj 253 2048 \$1 30;
#X obj 253 2072 line 0 3;
#X obj 339 1996 osc~;
#X obj 351 2123 *~ 0.1;
#X obj 396 1980 r trig;
#X obj 396 2004 random 10;
#X obj 396 2028 * 0.01;
#X obj 396 2052 \$1 30;
#X obj 396 2076 line 0 3;
#X obj 499 2002 osc~;
#X obj 511 2129 *~ 0.1;
#X obj 556 1986 r trig;
#X obj 556 2010 random 10;
#X obj 556 2034 * 0.01;
#X obj 556 2058 \$1 30;
#X obj 556 2082 line 0 3;
#X obj 4990 818 route gridToggle1 gridToggle2 gridToggle3 gridToggle4 gridToggle5 gridToggle6 gridToggle7 gridToggle8 gridToggle9 gridToggle10 gridToggle11 gridToggle12 gridToggle13 gridToggle14 gridToggle15 gridToggle16 gridToggle17 gridToggle18 gridToggle19 gridToggle20 gridToggle21 gridToggle22 gridToggle23 gridToggle24, f 81;
#X obj 654 1999 osc~;
#X obj 666 2126 *~ 0.1;
#X obj 711 1983 r trig;
#X obj 711 2007 random 10;
#X obj 711 2031 * 0.01;
#X obj 711 2055 \$1 30;
#X obj 711 2079 line 0 3;
#X obj 47 2219 osc~;
#X obj 59 2346 *~ 0.1;
#X obj 104 2203 r trig;
#X obj 104 2227 random 10;
#X obj 104 2251 * 0.01;
#X obj 104 2275 \$1 30;
#X obj 104 2299 line 0 3;
#X obj 218 2235 osc~;
#X obj 230 2362 *~ 0.1;
#X obj 275 2219 r trig;
#X obj 275 2243 random 10;
#X obj 275 2267 * 0.01;
#X obj 275 2291 \$1 30;
#X obj 275 2315 line 0 3;
#X obj 392 2238 osc~;
#X obj 404 2365 *~ 0.1;
#X obj 449 2222 r trig;
#X obj 449 2246 random 10;
#X obj 449 2270 * 0.01;
#X obj 449 2294 \$1 30;
#X obj 449 2318 line 0 3;
#X obj 198 1955 / 3;
#X obj 341 1959 / 4;
#X obj 501 1965 / 5;
#X obj 656 1962 / 6;
#X obj 49 2182 / 7;
#X obj 220 2198 / 8;
#X obj 394 2201 / 9;
#X obj 431 1639 catch~ out;
#X obj 537 1710 lop~ 2000;
#X obj 537 1734 hip~ 600;
#X obj 537 1782 delwrite~ delBuff 300;
#X obj 536 1813 delread~ delBuff 300;
#X obj 147 2412 throw~ out;
#X obj -15 1675 random 3000;
#X obj 537 1686 lop~ 3000;
#X obj -125 1767 random 30;
#X obj -125 1791 + 84;
#X msg -125 1885 \$1 50;
#X obj -123 1922 line 0 4;
#X obj 537 1758 *~ 0;
#X obj 536 1837 *~ 0;
#X obj -124 2078 *~ 0;
#X obj -104 1556 tgl 19 0 empty empty empty 0 -10 0 12 #fcfcfc #000000 #000000 0 1;
#X obj -35 910 sel 0 1;
#X msg 17 963 0;
#X obj 385 1827 dac~;
#X obj 426 1677 *~;
#X obj 2511 103 route gridToggle1 gridToggle2 gridToggle3 gridToggle4 gridToggle5 gridToggle6 gridToggle7 gridToggle8 gridToggle9 gridToggle10 gridToggle11 gridToggle12 gridToggle13 gridToggle14 gridToggle15 gridToggle16 gridToggle17 gridToggle18 gridToggle19 gridToggle20 gridToggle21 gridToggle22 gridToggle23, f 316;
#X obj -448 270 route gridToggle24;
#X obj 2489 379 bng 19 250 50 0 empty empty empty 0 -10 0 12 #fcfcfc #000000 #000000;
#X obj 2497 434 line~;
#X obj 2512 613 dac~;
#X obj 2459 314 tgl 19 0 empty empty empty 0 -10 0 12 #fcfcfc #000000 #000000 0 1;
#X obj 2450 350 metro 200;
#X msg 2487 408 0 \, 80 10 30 200;
#X obj 2497 517 -~ 0.1;
#X obj 2512 547 cos~;
#X obj 2606 381 bng 19 250 50 0 empty empty empty 0 -10 0 12 #fcfcfc #000000 #000000;
#X obj 2614 436 line~;
#X obj 2649 609 dac~;
#X obj 2576 316 tgl 19 0 empty empty empty 0 -10 0 12 #fcfcfc #000000 #000000 0 1;
#X obj 2633 566 cos~;
#X msg 2604 410 0 \, 1 5 0 120;
#X obj 2618 476 lop~ 3000;
#X obj 2614 519 -~ 30;
#X obj 2573 343 metro 100;
#X obj 2733 383 bng 19 250 50 0 empty empty empty 0 -10 0 12 #fcfcfc #000000 #000000;
#X obj 2741 438 line~;
#X obj 2776 611 dac~;
#X obj 2703 318 tgl 19 0 empty empty empty 0 -10 0 12 #fcfcfc #000000 #000000 0 1;
#X obj 2744 495 *~ 20;
#X obj 2760 568 cos~;
#X obj 2741 521 -~ 0.1;
#X obj 2753 467 bp~ 2000 50;
#X msg 2731 412 0 \, 1 5 0 130;
#X obj 2700 345 metro 180;
#X obj 2867 380 bng 19 250 50 0 empty empty empty 0 -10 0 12 #fcfcfc #000000 #000000;
#X obj 2875 435 line~;
#X obj 2895 594 dac~;
#X obj 2837 315 tgl 19 0 empty empty empty 0 -10 0 12 #fcfcfc #000000 #000000 0 1;
#X obj 2878 492 *~ 20;
#X obj 2875 518 -~ 0.1;
#X msg 2865 409 0 \, 1 5 0 30;
#X obj 2834 342 metro 300;
#X obj 2887 464 hip~ 8000;
#X obj 2955 299 tgl 19 0 empty empty empty 0 -10 0 12 #fcfcfc #000000 #000000 0 1;
#X obj 2956 346 metro 120;
#X obj 2986 374 random 5;
#X obj 2991 410 select 0 1 2 3 4;
#X msg 2995 443 60;
#X msg 3036 444 62;
#X msg 3078 444 65;
#X msg 3139 441 67;
#X msg 3176 442 69, f 2;
#X obj 3026 501 mtof;
#X obj 3025 543 osc~;
#X obj 3021 578 *~ 0.3;
#X obj 3031 618 dac~;
#X obj 3097 344 sel 0 1;
#X msg 3125 379 0;
#X obj 3205 279 tgl 19 0 empty empty empty 0 -10 0 12 #fcfcfc #000000 #000000 0 1;
#X obj 3209 330 metro 50;
#X obj 3218 380 random 100;
#X obj 3226 423 + 300;
#X obj 3234 462 mtof;
#X obj 3236 511 osc~;
#X obj 3238 588 dac~;
#X obj 3240 543 *~ 0.15;
#X obj 3275 287 sel 0 1;
#X msg 3299 332 0;
#X obj 3402 287 tgl 19 0 empty empty empty 0 -10 0 12 #fcfcfc #000000 #000000 0 1;
#X obj 3397 328 metro 250;
#X obj 3403 375 random 7;
#X obj 3394 418 select 0 1 2 3 4 5 6;
#X msg 3360 457 60;
#X msg 3402 463 62;
#X msg 3442 466 64;
#X msg 3486 470 65;
#X msg 3531 472 67;
#X msg 3583 470 69;
#X msg 3645 474 71;
#X obj 3387 534 mtof;
#X obj 3388 574 osc~;
#X obj 3384 653 dac~;
#X obj 3386 613 *~ 0.3;
#X obj 3463 289 sel 0 1;
#X msg 3486 328 0;
#X obj 3749 302 tgl 19 0 empty empty empty 0 -10 0 12 #fcfcfc #000000 #000000 0 1;
#X obj 3744 343 metro 250;
#X obj 3750 390 random 7;
#X obj 3741 433 select 0 1 2 3 4 5 6;
#X msg 3749 478 62;
#X msg 3992 489 71;
#X obj 3734 549 mtof;
#X obj 3735 589 osc~;
#X obj 3731 668 dac~;
#X obj 3733 628 *~ 0.3;
#X obj 3810 304 sel 0 1;
#X msg 3833 343 0;
#X obj 4092 319 tgl 19 0 empty empty empty 0 -10 0 12 #fcfcfc #000000 #000000 0 1;
#X obj 4093 407 random 7;
#X obj 4084 450 select 0 1 2 3 4 5 6;
#X msg 4176 502 65;
#X msg 4221 504 67;
#X obj 4077 566 mtof;
#X obj 4078 606 osc~;
#X obj 4074 685 dac~;
#X obj 4076 645 *~ 0.3;
#X obj 4153 321 sel 0 1;
#X msg 4176 360 0;
#X msg 3707 472 50;
#X msg 3789 481 54;
#X msg 3833 485 55;
#X msg 3878 487 60;
#X msg 3930 485 70;
#X obj 4087 360 metro 300;
#X msg 4050 489 50;
#X msg 4092 495 54;
#X msg 4132 498 60;
#X msg 4273 502 70;
#X msg 4335 506 72;
#X obj 4328 330 tgl 19 0 empty empty empty 0 -10 0 12 #fcfcfc #000000 #000000 0 1;
#X obj 4368 401 bng 19 250 50 0 empty empty empty 0 -10 0 12 #fcfcfc #000000 #000000;
#X obj 4383 457 line~;
#X obj 4394 650 dac~;
#X obj 4383 540 -~ 0.25;
#X obj 4388 482 sqrt~;
#X obj 4412 579 cos~;
#X obj 4342 364 metro 350;
#X msg 4373 431 0 \, 1 5 0 30;
#X obj 4388 508 *~ 10;
#X obj 4532 370 bng 19 250 50 0 empty empty empty 0 -10 0 12 #fcfcfc #000000 #000000;
#X obj 4547 426 line~;
#X obj 4558 619 dac~;
#X obj 4504 297 tgl 19 0 empty empty empty 0 -10 0 12 #fcfcfc #000000 #000000 0 1;
#X obj 4506 333 metro 800;
#X msg 4537 400 0 \, 1 10 0 80;
#X obj 4552 477 *~ 3;
#X obj 4547 509 -~ 0.35;
#X obj 4576 548 cos~;
#X obj 4630 296 tgl 19 0 empty empty empty 0 -10 0 12 #fcfcfc #000000 #000000 0 1;
#X obj 4630 320 metro 180;
#X msg 4635 351 0 \, 1 3 0 18;
#X obj 4658 390 line~;
#X obj 4671 433 sqrt~;
#X obj 4672 469 *~ 50;
#X obj 4679 533 *~ 0.25;
#X obj 4685 598 dac~;
#X obj 4776 345 bng 19 250 50 0 empty empty empty 0 -10 0 12 #fcfcfc #000000 #000000;
#X obj 4791 401 line~;
#X obj 4802 594 dac~;
#X obj 4791 484 -~ 0.25;
#X obj 4796 426 sqrt~;
#X obj 4820 523 cos~;
#X obj 4796 452 *~ 10;
#X obj 4750 308 metro 220;
#X msg 4781 375 0 \, 1 4 0 22;
#X obj 4762 262 tgl 19 0 empty empty empty 0 -10 0 12 #fcfcfc #000000 #000000 0 1;
#X obj 4909 335 bng 19 250 50 0 empty empty empty 0 -10 0 12 #fcfcfc #000000 #000000;
#X obj 4924 391 line~;
#X obj 4935 584 dac~;
#X obj 4929 416 sqrt~;
#X obj 4953 513 cos~;
#X obj 4895 252 tgl 19 0 empty empty empty 0 -10 0 12 #fcfcfc #000000 #000000 0 1;
#X msg 4914 365 0 \, 1 7 0 45;
#X obj 4929 442 *~ 4;
#X obj 4924 474 -~ 0.3;
#X obj 4883 298 metro 450;
#X obj 5041 340 bng 19 250 50 0 empty empty empty 0 -10 0 12 #fcfcfc #000000 #000000;
#X obj 5056 396 line~;
#X obj 5067 589 dac~;
#X obj 5061 421 sqrt~;
#X obj 5085 518 cos~;
#X obj 5027 257 tgl 19 0 empty empty empty 0 -10 0 12 #fcfcfc #000000 #000000 0 1;
#X obj 5056 479 -~ 0.3;
#X msg 5046 370 0 \, 1 5 0 32;
#X obj 5015 303 metro 320;
#X obj 5061 447 *~ 50;
#X obj 3896 716 bng 19 250 50 0 empty empty empty 0 -10 0 12 #fcfcfc #000000 #000000;
#X obj 3911 772 line~;
#X obj 3922 965 dac~;
#X obj 3916 797 sqrt~;
#X obj 3940 894 cos~;
#X obj 3882 633 tgl 19 0 empty empty empty 0 -10 0 12 #fcfcfc #000000 #000000 0 1;
#X obj 3916 823 *~ 4;
#X obj 3911 855 -~ 0.3;
#X obj 3870 679 metro 450;
#X msg 2294 434 0 \, 120 100;
#X msg 3901 746 0 \, 150 100;
#X obj 1035 1692 route button2 button3;
#X obj 1076 1758 bng 19 250 50 0 empty empty empty 0 -10 0 12 #fcfcfc #000000 #000000;
#X obj 1080 1855 noteout;
#X msg 1063 1799 52;
#X msg 1112 1797 55;
#X msg 1163 1800 59;
#X obj 1251 1766 bng 19 250 50 0 empty empty empty 0 -10 0 12 #fcfcfc #000000 #000000;
#X obj 1255 1863 noteout;
#X msg 1238 1807 40, f 2;
#X msg 1287 1805 47;
#X msg 1338 1808 52;
#X obj 1584 1824 route slider2Dx;
#X obj 1572 1708 route slider2Dy;
#X floatatom 1782 1663 5 0 0 0 - - - 0;
#X floatatom 1928 1655 5 0 0 0 - - - 0;
#X floatatom 2064 1657 5 0 0 0 - - - 0;
#X obj 1775 1769 +~;
#X obj 1659 1765 * 1000;
#X obj 1685 1893 * 1000;
#X obj 1916 1700 osc~;
#X obj 1926 1774 *~;
#X obj 1824 1849 osc~;
#X obj 1831 1899 *~ 0.5;
#X obj 1833 1938 dac~;
#X connect 0 0 1 0;
#X connect 1 0 2 0;
#X connect 2 0 8 0;
#X connect 3 0 4 0;
#X connect 4 0 5 1;
#X connect 5 0 6 0;
#X connect 5 0 6 1;
#X connect 8 0 3 0;
#X connect 8 0 10 0;
#X connect 8 0 12 0;
#X connect 8 0 185 0;
#X connect 8 0 290 0;
#X connect 8 0 9 0;
#X connect 8 0 308 0;
#X connect 8 0 322 0;
#X connect 8 0 324 0;
#X connect 8 0 325 0;
#X connect 8 0 447 0;
#X connect 8 0 448 0;
#X connect 8 0 629 0;
#X connect 8 0 640 0;
#X connect 8 0 641 0;
#X connect 10 0 11 0;
#X connect 11 0 232 1;
#X connect 12 0 13 0;
#X connect 12 1 18 0;
#X connect 12 2 21 0;
#X connect 12 3 65 0;
#X connect 12 4 25 0;
#X connect 12 5 29 0;
#X connect 12 6 75 0;
#X connect 12 7 33 0;
#X connect 12 8 79 0;
#X connect 12 9 37 0;
#X connect 12 10 41 0;
#X connect 12 11 45 0;
#X connect 12 12 49 0;
#X connect 12 13 53 0;
#X connect 12 14 57 0;
#X connect 12 15 61 0;
#X connect 12 16 93 0;
#X connect 12 17 97 0;
#X connect 12 18 101 0;
#X connect 12 19 105 0;
#X connect 12 20 109 0;
#X connect 12 21 113 0;
#X connect 12 22 117 0;
#X connect 12 23 121 0;
#X connect 13 0 14 0;
#X connect 13 0 15 0;
#X connect 13 0 16 0;
#X connect 14 0 17 0;
#X connect 15 0 17 1;
#X connect 16 0 17 2;
#X connect 18 0 69 0;
#X connect 18 0 70 0;
#X connect 18 0 19 0;
#X connect 19 0 20 2;
#X connect 21 0 71 0;
#X connect 21 0 22 0;
#X connect 21 0 23 0;
#X connect 22 0 24 1;
#X connect 23 0 24 2;
#X connect 25 0 72 0;
#X connect 25 0 26 0;
#X connect 25 0 27 0;
#X connect 26 0 28 1;
#X connect 27 0 28 2;
#X connect 29 0 73 0;
#X connect 29 0 30 0;
#X connect 29 0 31 0;
#X connect 30 0 32 1;
#X connect 31 0 32 2;
#X connect 33 0 74 0;
#X connect 33 0 34 0;
#X connect 33 0 35 0;
#X connect 34 0 36 1;
#X connect 35 0 36 2;
#X connect 37 0 83 0;
#X connect 37 0 38 0;
#X connect 37 0 39 0;
#X connect 38 0 40 1;
#X connect 39 0 40 2;
#X connect 41 0 84 0;
#X connect 41 0 42 0;
#X connect 41 0 43 0;
#X connect 42 0 44 1;
#X connect 43 0 44 2;
#X connect 45 0 85 0;
#X connect 45 0 46 0;
#X connect 45 0 47 0;
#X connect 46 0 48 1;
#X connect 47 0 48 2;
#X connect 49 0 86 0;
#X connect 49 0 50 0;
#X connect 49 0 51 0;
#X connect 50 0 52 1;
#X connect 51 0 52 2;
#X connect 53 0 87 0;
#X connect 53 0 54 0;
#X connect 53 0 55 0;
#X connect 54 0 56 1;
#X connect 55 0 56 2;
#X connect 57 0 88 0;
#X connect 57 0 58 0;
#X connect 57 0 59 0;
#X connect 58 0 60 1;
#X connect 59 0 60 2;
#X connect 61 0 89 0;
#X connect 61 0 62 0;
#X connect 61 0 63 0;
#X connect 62 0 64 1;
#X connect 63 0 64 2;
#X connect 65 0 90 0;
#X connect 65 0 66 0;
#X connect 65 0 67 0;
#X connect 66 0 68 1;
#X connect 67 0 68 2;
#X connect 69 0 20 0;
#X connect 70 0 20 1;
#X connect 71 0 24 0;
#X connect 72 0 28 0;
#X connect 73 0 32 0;
#X connect 74 0 36 0;
#X connect 75 0 91 0;
#X connect 75 0 76 0;
#X connect 75 0 77 0;
#X connect 76 0 78 1;
#X connect 77 0 78 2;
#X connect 79 0 92 0;
#X connect 79 0 80 0;
#X connect 79 0 81 0;
#X connect 80 0 82 1;
#X connect 81 0 82 2;
#X connect 83 0 40 0;
#X connect 84 0 44 0;
#X connect 85 0 48 0;
#X connect 86 0 52 0;
#X connect 87 0 56 0;
#X connect 88 0 60 0;
#X connect 89 0 64 0;
#X connect 90 0 68 0;
#X connect 91 0 78 0;
#X connect 92 0 82 0;
#X connect 93 0 125 0;
#X connect 93 0 94 0;
#X connect 93 0 95 0;
#X connect 94 0 96 1;
#X connect 95 0 96 2;
#X connect 97 0 126 0;
#X connect 97 0 98 0;
#X connect 97 0 99 0;
#X connect 98 0 100 1;
#X connect 99 0 100 2;
#X connect 101 0 127 0;
#X connect 101 0 102 0;
#X connect 101 0 103 0;
#X connect 102 0 104 1;
#X connect 103 0 104 2;
#X connect 105 0 128 0;
#X connect 105 0 106 0;
#X connect 105 0 107 0;
#X connect 106 0 108 1;
#X connect 107 0 108 2;
#X connect 109 0 129 0;
#X connect 109 0 110 0;
#X connect 109 0 111 0;
#X connect 110 0 112 1;
#X connect 111 0 112 2;
#X connect 113 0 130 0;
#X connect 113 0 114 0;
#X connect 113 0 115 0;
#X connect 114 0 116 1;
#X connect 115 0 116 2;
#X connect 117 0 131 0;
#X connect 117 0 118 0;
#X connect 117 0 119 0;
#X connect 118 0 120 1;
#X connect 119 0 120 2;
#X connect 121 0 132 0;
#X connect 121 0 122 0;
#X connect 121 0 123 0;
#X connect 122 0 124 1;
#X connect 123 0 124 2;
#X connect 125 0 96 0;
#X connect 126 0 100 0;
#X connect 127 0 104 0;
#X connect 128 0 108 0;
#X connect 129 0 112 0;
#X connect 130 0 116 0;
#X connect 131 0 120 0;
#X connect 132 0 124 0;
#X connect 133 0 141 0;
#X connect 134 0 142 0;
#X connect 135 0 138 0;
#X connect 137 0 139 0;
#X connect 138 0 140 0;
#X connect 139 0 136 0;
#X connect 139 0 136 1;
#X connect 140 0 137 0;
#X connect 141 0 134 0;
#X connect 142 0 135 0;
#X connect 143 0 151 0;
#X connect 144 0 338 0;
#X connect 145 0 148 0;
#X connect 147 0 149 0;
#X connect 148 0 150 0;
#X connect 149 0 146 0;
#X connect 149 0 146 1;
#X connect 150 0 147 0;
#X connect 151 0 144 0;
#X connect 152 0 159 0;
#X connect 153 0 169 0;
#X connect 154 0 157 0;
#X connect 156 0 160 0;
#X connect 157 0 158 0;
#X connect 158 0 156 0;
#X connect 159 0 153 0;
#X connect 160 0 155 0;
#X connect 160 0 155 1;
#X connect 161 0 170 0;
#X connect 162 0 339 0;
#X connect 163 0 166 0;
#X connect 165 0 167 0;
#X connect 166 0 168 0;
#X connect 167 0 164 0;
#X connect 167 0 164 1;
#X connect 168 0 165 0;
#X connect 169 0 154 0;
#X connect 170 0 162 0;
#X connect 171 0 177 0;
#X connect 172 0 336 0;
#X connect 173 0 337 0;
#X connect 175 0 176 0;
#X connect 176 0 174 0;
#X connect 176 0 174 1;
#X connect 177 0 172 0;
#X connect 178 0 342 0;
#X connect 179 0 341 0;
#X connect 180 0 183 0;
#X connect 182 0 184 0;
#X connect 183 0 340 0;
#X connect 184 0 181 0;
#X connect 184 0 181 1;
#X connect 185 0 307 0;
#X connect 186 0 187 0;
#X connect 187 0 188 0;
#X connect 189 0 190 0;
#X connect 190 0 191 0;
#X connect 190 0 193 0;
#X connect 191 0 190 1;
#X connect 192 0 190 1;
#X connect 193 0 194 0;
#X connect 194 0 195 0;
#X connect 195 0 196 0;
#X connect 196 0 197 0;
#X connect 197 0 198 0;
#X connect 198 0 200 0;
#X connect 200 0 201 0;
#X connect 201 0 228 0;
#X connect 202 0 198 1;
#X connect 202 0 216 1;
#X connect 203 0 198 1;
#X connect 203 0 216 1;
#X connect 204 0 198 1;
#X connect 204 0 216 1;
#X connect 205 0 206 0;
#X connect 206 0 207 0;
#X connect 206 0 209 0;
#X connect 206 0 189 0;
#X connect 207 0 208 0;
#X connect 208 0 201 1;
#X connect 209 0 201 1;
#X connect 210 0 205 0;
#X connect 210 0 211 0;
#X connect 210 0 221 0;
#X connect 210 0 229 0;
#X connect 210 0 193 0;
#X connect 211 0 212 0;
#X connect 212 0 213 0;
#X connect 213 0 214 0;
#X connect 214 0 215 0;
#X connect 215 0 216 0;
#X connect 216 0 217 0;
#X connect 216 0 218 0;
#X connect 217 0 228 0;
#X connect 218 0 219 0;
#X connect 219 0 220 0;
#X connect 220 0 228 0;
#X connect 221 0 222 0;
#X connect 222 0 223 0;
#X connect 223 0 224 0;
#X connect 223 0 230 0;
#X connect 224 0 231 0;
#X connect 225 0 226 0;
#X connect 226 0 227 0;
#X connect 227 0 228 0;
#X connect 228 0 232 0;
#X connect 229 0 228 1;
#X connect 230 0 227 1;
#X connect 231 0 227 1;
#X connect 232 0 233 0;
#X connect 232 0 233 1;
#X connect 234 0 235 0;
#X connect 235 0 236 0;
#X connect 236 0 237 0;
#X connect 238 0 239 0;
#X connect 240 0 241 0;
#X connect 240 0 242 0;
#X connect 243 0 244 1;
#X connect 245 0 244 0;
#X connect 246 0 247 0;
#X connect 247 0 248 0;
#X connect 247 0 250 0;
#X connect 247 0 249 0;
#X connect 247 0 269 0;
#X connect 247 0 274 0;
#X connect 247 0 285 0;
#X connect 248 0 251 0;
#X connect 249 0 252 0;
#X connect 250 0 253 0;
#X connect 251 0 254 0;
#X connect 252 0 256 0;
#X connect 253 0 255 0;
#X connect 254 0 257 0;
#X connect 255 0 258 0;
#X connect 256 0 259 0;
#X connect 257 0 261 0;
#X connect 257 0 262 1;
#X connect 258 0 260 0;
#X connect 259 0 265 1;
#X connect 260 0 262 0;
#X connect 261 0 263 0;
#X connect 262 0 261 1;
#X connect 263 0 264 0;
#X connect 264 0 265 0;
#X connect 265 0 266 0;
#X connect 265 0 267 0;
#X connect 265 0 268 0;
#X connect 269 0 270 0;
#X connect 270 0 271 0;
#X connect 271 0 272 0;
#X connect 272 0 273 0;
#X connect 273 0 277 0;
#X connect 274 0 275 0;
#X connect 275 0 276 0;
#X connect 275 0 270 1;
#X connect 276 0 277 0;
#X connect 277 0 264 1;
#X connect 277 0 278 0;
#X connect 278 0 279 0;
#X connect 279 0 280 0;
#X connect 280 0 281 0;
#X connect 281 0 282 0;
#X connect 282 0 283 0;
#X connect 282 0 288 0;
#X connect 283 0 284 0;
#X connect 285 0 286 0;
#X connect 285 0 287 0;
#X connect 286 0 289 0;
#X connect 288 0 289 0;
#X connect 289 0 281 1;
#X connect 290 0 247 0;
#X connect 291 0 292 0;
#X connect 292 0 300 0;
#X connect 293 0 328 0;
#X connect 294 0 329 0;
#X connect 295 0 330 0;
#X connect 296 0 331 0;
#X connect 297 0 332 0;
#X connect 298 0 333 0;
#X connect 299 0 334 0;
#X connect 300 0 293 0;
#X connect 300 1 294 0;
#X connect 300 2 295 0;
#X connect 300 3 296 0;
#X connect 300 4 298 0;
#X connect 300 6 299 0;
#X connect 300 8 301 0;
#X connect 301 0 335 0;
#X connect 302 0 291 0;
#X connect 303 0 304 0;
#X connect 304 0 305 0;
#X connect 305 0 306 0;
#X connect 306 0 5 0;
#X connect 307 0 443 0;
#X connect 307 0 327 0;
#X connect 308 0 210 0;
#X connect 309 0 310 0;
#X connect 310 0 311 0;
#X connect 311 0 312 0;
#X connect 311 0 317 0;
#X connect 312 0 313 0;
#X connect 313 0 311 1;
#X connect 314 0 315 0;
#X connect 315 0 318 0;
#X connect 317 0 314 0;
#X connect 318 0 320 0;
#X connect 319 0 310 1;
#X connect 320 0 321 0;
#X connect 320 0 321 1;
#X connect 322 0 323 0;
#X connect 323 0 320 1;
#X connect 324 0 442 0;
#X connect 325 0 326 0;
#X connect 326 0 319 0;
#X connect 327 0 302 0;
#X connect 328 0 303 0;
#X connect 329 0 303 0;
#X connect 330 0 303 0;
#X connect 331 0 303 0;
#X connect 332 0 303 0;
#X connect 333 0 303 0;
#X connect 334 0 303 0;
#X connect 335 0 303 0;
#X connect 336 0 173 0;
#X connect 337 0 175 0;
#X connect 338 0 145 0;
#X connect 339 0 163 0;
#X connect 340 0 182 0;
#X connect 341 0 180 0;
#X connect 342 0 179 0;
#X connect 343 0 348 0;
#X connect 344 0 349 0;
#X connect 346 0 347 0;
#X connect 347 0 343 0;
#X connect 348 0 344 0;
#X connect 349 0 350 0;
#X connect 350 0 352 0;
#X connect 351 0 345 0;
#X connect 351 0 345 1;
#X connect 352 0 351 0;
#X connect 353 0 354 0;
#X connect 354 0 355 0;
#X connect 354 0 433 0;
#X connect 354 0 435 0;
#X connect 356 0 357 0;
#X connect 357 0 353 1;
#X connect 358 0 359 0;
#X connect 359 0 360 0;
#X connect 360 0 437 0;
#X connect 361 0 441 0;
#X connect 362 0 363 0;
#X connect 363 0 364 0;
#X connect 364 0 432 0;
#X connect 365 0 366 0;
#X connect 366 0 367 0;
#X connect 367 0 368 0;
#X connect 368 0 369 0;
#X connect 369 0 364 1;
#X connect 370 0 371 0;
#X connect 371 0 432 0;
#X connect 372 0 373 0;
#X connect 373 0 374 0;
#X connect 374 0 375 0;
#X connect 375 0 376 0;
#X connect 376 0 371 1;
#X connect 377 0 378 0;
#X connect 378 0 432 0;
#X connect 379 0 380 0;
#X connect 380 0 381 0;
#X connect 381 0 382 0;
#X connect 382 0 383 0;
#X connect 383 0 378 1;
#X connect 384 0 385 0;
#X connect 385 0 432 0;
#X connect 386 0 387 0;
#X connect 387 0 388 0;
#X connect 388 0 389 0;
#X connect 389 0 390 0;
#X connect 390 0 385 1;
#X connect 392 0 393 0;
#X connect 393 0 432 0;
#X connect 394 0 395 0;
#X connect 395 0 396 0;
#X connect 396 0 397 0;
#X connect 397 0 398 0;
#X connect 398 0 393 1;
#X connect 399 0 400 0;
#X connect 400 0 432 0;
#X connect 401 0 402 0;
#X connect 402 0 403 0;
#X connect 403 0 404 0;
#X connect 404 0 405 0;
#X connect 405 0 400 1;
#X connect 406 0 407 0;
#X connect 407 0 432 0;
#X connect 408 0 409 0;
#X connect 409 0 410 0;
#X connect 410 0 411 0;
#X connect 411 0 412 0;
#X connect 412 0 407 1;
#X connect 413 0 414 0;
#X connect 414 0 432 0;
#X connect 415 0 416 0;
#X connect 416 0 417 0;
#X connect 417 0 418 0;
#X connect 418 0 419 0;
#X connect 419 0 414 1;
#X connect 420 0 370 0;
#X connect 421 0 377 0;
#X connect 422 0 384 0;
#X connect 423 0 392 0;
#X connect 424 0 399 0;
#X connect 425 0 406 0;
#X connect 426 0 413 0;
#X connect 427 0 434 0;
#X connect 427 0 446 0;
#X connect 428 0 429 0;
#X connect 429 0 439 0;
#X connect 431 0 440 0;
#X connect 433 0 356 0;
#X connect 434 0 428 0;
#X connect 435 0 436 0;
#X connect 436 0 358 0;
#X connect 437 0 438 0;
#X connect 438 0 361 0;
#X connect 438 0 362 0;
#X connect 438 0 420 0;
#X connect 438 0 421 0;
#X connect 438 0 422 0;
#X connect 438 0 423 0;
#X connect 438 0 424 0;
#X connect 438 0 425 0;
#X connect 438 0 426 0;
#X connect 439 0 430 0;
#X connect 440 0 445 0;
#X connect 440 0 445 1;
#X connect 441 0 432 0;
#X connect 442 0 353 0;
#X connect 442 0 446 1;
#X connect 443 0 444 0;
#X connect 443 1 327 0;
#X connect 444 0 304 0;
#X connect 446 0 445 0;
#X connect 446 0 445 1;
#X connect 447 0 133 0;
#X connect 447 1 143 0;
#X connect 447 2 152 0;
#X connect 447 3 161 0;
#X connect 447 4 171 0;
#X connect 447 5 178 0;
#X connect 447 6 346 0;
#X connect 447 7 452 0;
#X connect 447 8 623 0;
#X connect 447 9 460 0;
#X connect 447 10 469 0;
#X connect 447 11 479 0;
#X connect 447 12 500 0;
#X connect 447 13 485 0;
#X connect 447 14 510 0;
#X connect 447 15 527 0;
#X connect 447 16 539 0;
#X connect 447 17 561 0;
#X connect 447 18 574 0;
#X connect 447 19 580 0;
#X connect 447 20 597 0;
#X connect 447 21 603 0;
#X connect 447 22 613 0;
#X connect 448 0 309 0;
#X connect 449 0 454 0;
#X connect 450 0 455 0;
#X connect 452 0 453 0;
#X connect 453 0 449 0;
#X connect 454 0 450 0;
#X connect 455 0 456 0;
#X connect 456 0 451 0;
#X connect 456 0 451 1;
#X connect 457 0 462 0;
#X connect 458 0 463 0;
#X connect 460 0 465 0;
#X connect 461 0 459 0;
#X connect 461 0 459 1;
#X connect 462 0 458 0;
#X connect 463 0 464 0;
#X connect 464 0 461 0;
#X connect 465 0 457 0;
#X connect 466 0 474 0;
#X connect 467 0 473 0;
#X connect 469 0 475 0;
#X connect 470 0 472 0;
#X connect 471 0 468 0;
#X connect 471 0 468 1;
#X connect 472 0 471 0;
#X connect 473 0 470 0;
#X connect 474 0 467 0;
#X connect 475 0 466 0;
#X connect 476 0 482 0;
#X connect 477 0 484 0;
#X connect 479 0 483 0;
#X connect 480 0 481 0;
#X connect 481 0 478 0;
#X connect 481 0 478 1;
#X connect 482 0 477 0;
#X connect 483 0 476 0;
#X connect 484 0 480 0;
#X connect 485 0 486 0;
#X connect 485 0 498 0;
#X connect 486 0 487 0;
#X connect 487 0 488 0;
#X connect 488 0 489 0;
#X connect 488 1 490 0;
#X connect 488 2 491 0;
#X connect 488 3 492 0;
#X connect 488 4 493 0;
#X connect 489 0 494 0;
#X connect 490 0 494 0;
#X connect 491 0 494 0;
#X connect 492 0 494 0;
#X connect 493 0 494 0;
#X connect 494 0 495 0;
#X connect 495 0 496 0;
#X connect 496 0 497 0;
#X connect 496 0 497 1;
#X connect 498 0 499 0;
#X connect 498 1 486 0;
#X connect 499 0 494 0;
#X connect 500 0 501 0;
#X connect 500 0 508 0;
#X connect 501 0 502 0;
#X connect 502 0 503 0;
#X connect 503 0 504 0;
#X connect 504 0 505 0;
#X connect 505 0 507 0;
#X connect 507 0 506 0;
#X connect 507 0 506 1;
#X connect 508 0 509 0;
#X connect 508 1 501 0;
#X connect 509 0 504 0;
#X connect 510 0 511 0;
#X connect 510 0 525 0;
#X connect 511 0 512 0;
#X connect 512 0 513 0;
#X connect 513 0 514 0;
#X connect 513 1 515 0;
#X connect 513 2 516 0;
#X connect 513 3 517 0;
#X connect 513 4 518 0;
#X connect 513 5 519 0;
#X connect 513 6 520 0;
#X connect 514 0 521 0;
#X connect 515 0 521 0;
#X connect 516 0 521 0;
#X connect 517 0 521 0;
#X connect 518 0 521 0;
#X connect 519 0 521 0;
#X connect 520 0 521 0;
#X connect 521 0 522 0;
#X connect 522 0 524 0;
#X connect 524 0 523 0;
#X connect 524 0 523 1;
#X connect 525 0 526 0;
#X connect 525 1 511 0;
#X connect 526 0 521 0;
#X connect 527 0 528 0;
#X connect 527 0 537 0;
#X connect 528 0 529 0;
#X connect 529 0 530 0;
#X connect 530 0 550 0;
#X connect 530 1 531 0;
#X connect 530 2 551 0;
#X connect 530 3 552 0;
#X connect 530 4 553 0;
#X connect 530 5 554 0;
#X connect 530 6 532 0;
#X connect 531 0 533 0;
#X connect 532 0 533 0;
#X connect 533 0 534 0;
#X connect 534 0 536 0;
#X connect 536 0 535 0;
#X connect 536 0 535 1;
#X connect 537 0 538 0;
#X connect 537 1 528 0;
#X connect 538 0 533 0;
#X connect 539 0 548 0;
#X connect 539 0 555 0;
#X connect 540 0 541 0;
#X connect 541 0 556 0;
#X connect 541 1 557 0;
#X connect 541 2 558 0;
#X connect 541 3 542 0;
#X connect 541 4 543 0;
#X connect 541 5 559 0;
#X connect 541 6 560 0;
#X connect 542 0 544 0;
#X connect 543 0 544 0;
#X connect 544 0 545 0;
#X connect 545 0 547 0;
#X connect 547 0 546 0;
#X connect 547 0 546 1;
#X connect 548 0 549 0;
#X connect 548 1 555 0;
#X connect 549 0 544 0;
#X connect 550 0 533 0;
#X connect 551 0 533 0;
#X connect 552 0 533 0;
#X connect 553 0 533 0;
#X connect 554 0 533 0;
#X connect 555 0 540 0;
#X connect 556 0 544 0;
#X connect 557 0 544 0;
#X connect 558 0 544 0;
#X connect 559 0 544 0;
#X connect 560 0 544 0;
#X connect 561 0 568 0;
#X connect 562 0 569 0;
#X connect 563 0 566 0;
#X connect 565 0 567 0;
#X connect 566 0 570 0;
#X connect 567 0 564 0;
#X connect 567 0 564 1;
#X connect 568 0 562 0;
#X connect 569 0 563 0;
#X connect 570 0 565 0;
#X connect 571 0 576 0;
#X connect 572 0 577 0;
#X connect 574 0 575 0;
#X connect 575 0 571 0;
#X connect 576 0 572 0;
#X connect 577 0 578 0;
#X connect 578 0 579 0;
#X connect 579 0 573 0;
#X connect 579 0 573 1;
#X connect 580 0 581 0;
#X connect 581 0 582 0;
#X connect 582 0 583 0;
#X connect 583 0 584 0;
#X connect 584 0 585 0;
#X connect 585 0 586 0;
#X connect 586 0 587 0;
#X connect 586 0 587 1;
#X connect 588 0 596 0;
#X connect 589 0 592 0;
#X connect 591 0 593 0;
#X connect 592 0 594 0;
#X connect 593 0 590 0;
#X connect 593 0 590 1;
#X connect 594 0 591 0;
#X connect 595 0 588 0;
#X connect 596 0 589 0;
#X connect 597 0 595 0;
#X connect 598 0 604 0;
#X connect 599 0 601 0;
#X connect 601 0 605 0;
#X connect 602 0 600 0;
#X connect 602 0 600 1;
#X connect 603 0 607 0;
#X connect 604 0 599 0;
#X connect 605 0 606 0;
#X connect 606 0 602 0;
#X connect 607 0 598 0;
#X connect 608 0 615 0;
#X connect 609 0 611 0;
#X connect 611 0 617 0;
#X connect 612 0 610 0;
#X connect 612 0 610 1;
#X connect 613 0 616 0;
#X connect 614 0 612 0;
#X connect 615 0 609 0;
#X connect 616 0 608 0;
#X connect 617 0 614 0;
#X connect 618 0 628 0;
#X connect 619 0 621 0;
#X connect 621 0 624 0;
#X connect 622 0 620 0;
#X connect 622 0 620 1;
#X connect 623 0 626 0;
#X connect 624 0 625 0;
#X connect 625 0 622 0;
#X connect 626 0 618 0;
#X connect 628 0 619 0;
#X connect 629 0 630 0;
#X connect 629 1 635 0;
#X connect 630 0 632 0;
#X connect 630 0 633 0;
#X connect 630 0 634 0;
#X connect 632 0 631 0;
#X connect 633 0 631 1;
#X connect 634 0 631 2;
#X connect 635 0 637 0;
#X connect 635 0 638 0;
#X connect 635 0 639 0;
#X connect 637 0 636 0;
#X connect 638 0 636 1;
#X connect 639 0 636 2;
#X connect 640 0 647 0;
#X connect 641 0 646 0;
#X connect 642 0 645 0;
#X connect 643 0 648 0;
#X connect 644 0 649 1;
#X connect 645 0 650 0;
#X connect 646 0 643 0;
#X connect 647 0 644 0;
#X connect 648 0 649 0;
#X connect 649 0 645 1;
#X connect 650 0 651 0;
#X connect 651 0 652 0;
#X connect 651 0 652 1;
